{"title":"Seeking Justice 2011 BRRip XviD Ac3 Feel-Free","uid":7010657,"size":1388750360,"categoryP":"video","categoryS":"movies","magnet":"?xt=urn:btih:fe6c44410bcd4a98c78864d936c5f85aac038c17&amp;dn=Seeking+Justice+2011+BRRip+XviD+Ac3+Feel-Free&amp;tr=udp%3A%2F%2Ftracker.openbittorrent.com%3A80&amp;tr=udp%3A%2F%2Fopen.demonii.com%3A1337&amp;tr=udp%3A%2F%2Ftracker.coppersurfer.tk%3A6969&amp;tr=udp%3A%2F%2Fexodus.desync.com%3A6969","seeders":0,"leechers":1,"uploader":null,"files":9,"time":1328441465,"description":"Genre: Action | Drama | Thriller\nLanguage:English\nIMDb: &lt;a href=&quot; http://www.imdb.com/title/tt1214962/&quot; rel=&quot;nofollow&quot; target=&quot;_NEW&quot;&gt; http://www.imdb.com/title/tt1214962/&lt;/a&gt;\nSource:1080p BluRay x264 KALIBER Thanks!\n\nFormat : AVI\nFormat/Info : Audio Video Interleave\nFile size : 1.29 GiB\nDuration : 1h 45mn\nOverall bit rate : 1 762 Kbps\n\nVideo\nID : 0\nFormat : MPEG-4 Visual\nFormat profile : Advanced Simple@L5\nFormat settings, BVOP : 1\nFormat settings, QPel : No\nFormat settings, GMC : No warppoints\nFormat settings, Matrix : Default (H.263)\nCodec ID : XVID\nCodec ID/Hint : XviD\nDuration : 1h 45mn\nBit rate : 1 304 Kbps\nWidth : 640 pixels\nHeight : 272 pixels\nDisplay aspect ratio : 2.35:1\nFrame rate : 24.000 fps\nColor space : YUV\nChroma subsampling : 4:2:0\nBit depth : 8 bits\nScan type : Progressive\nCompression mode : Lossy\nBits/(Pixel*Frame) : 0.312\nStream size : 980 MiB (74%)\nWriting library : XviD 1.2.1 (UTC 2008-12-04)\n\nAudio\nID : 1\nFormat : AC-3\nFormat/Info : Audio Coding 3\nMode extension : CM (complete main)\nCodec ID : 2000\nDuration : 1h 45mn\nBit rate mode : Constant\nBit rate : 448 Kbps\nChannel(s) : 6 channels\nChannel positions : Front: L C R, Side: L R, LFE\nSampling rate : 48.0 KHz\nBit depth : 16 bits\nCompression mode : Lossy\nStream size : 337 MiB (25%)\nAlignment : Aligned on interleaves\nInterleave, duration : 42 ms (1.00 video frame)\nInterleave, preload duration : 512 ms\n\n\nPlot:\nAfter his wife is assaulted, a husband enlists the services of a vigilante group to help him settle the score.","torrent":{"xt":"urn:btih:fe6c44410bcd4a98c78864d936c5f85aac038c17","amp;dn":"Seeking+Justice+2011+BRRip+XviD+Ac3+Feel-Free","amp;tr":["udp%3A%2F%2Ftracker.openbittorrent.com%3A80","udp%3A%2F%2Fopen.demonii.com%3A1337","udp%3A%2F%2Ftracker.coppersurfer.tk%3A6969","udp%3A%2F%2Fexodus.desync.com%3A6969"],"infoHash":"fe6c44410bcd4a98c78864d936c5f85aac038c17","infoHashBuffer":{"type":"Buffer","data":[254,108,68,65,11,205,74,152,199,136,100,217,54,197,248,90,172,3,140,23]},"announce":[],"urlList":[]}}